<?xml version="1.0" encoding="UTF-8" standalone="no"?>
<!-- Created with Inkscape (http://www.inkscape.org/) -->

<svg
   xmlns:dc="http://purl.org/dc/elements/1.1/"
   xmlns:cc="http://creativecommons.org/ns#"
   xmlns:rdf="http://www.w3.org/1999/02/22-rdf-syntax-ns#"
   xmlns:svg="http://www.w3.org/2000/svg"
   xmlns="http://www.w3.org/2000/svg"
   xmlns:inkscape="http://www.inkscape.org/namespaces/inkscape"
   version="1.1"
   width="54.875"
   height="75.362503"
   bgcolor="red"
   id="svg2"
   xml:space="preserve"><metadata
     id="metadata8"><rdf:RDF><cc:Work
         rdf:about=""><dc:format>image/svg+xml</dc:format><dc:type
           rdf:resource="http://purl.org/dc/dcmitype/StillImage" /></cc:Work></rdf:RDF></metadata><defs
     id="defs6"><clipPath
       id="clipPath18"><path
         d="m 0,0 439,0 0,602.898 -439,0 L 0,0 z"
         inkscape:connector-curvature="0"
         id="path20" /></clipPath></defs><g
     transform="matrix(1.25,0,0,-1.25,0,75.3625)"
     id="g10"><g
       transform="scale(0.1,0.1)"
       id="g12"><g
         id="g14"><g
           clip-path="url(#clipPath18)"
           id="g16"><path
             d="m 83.9258,31.6484 -50.1563,0 0,96.6916 c 0,1.914 -1.5234,3.437 -3.4375,3.437 l -26.69919,0 c -1.90234,0 -3.429685,-1.523 -3.429685,-3.437 l 0,-123.00797 c 0,-1.90625 1.527345,-3.42969 3.429685,-3.42969 l 80.29299,0 c 1.914,0 3.4375,1.52344 3.4375,3.42969 l 0,22.89067 c 0,1.914 -1.5235,3.4257 -3.4375,3.4257"
             inkscape:connector-curvature="0"
             id="path22"
             style="fill:#fef7ea;fill-opacity:1;fill-rule:nonzero;stroke:none" /><path
             d="m 145.582,52.2539 12.012,39.4727 11.648,-39.4727 -23.66,0 z m 31.856,76.6641 c -0.762,2.477 -2.481,3.426 -5.333,3.426 l -28.222,0 c -2.871,0 -4.59,-0.949 -5.352,-3.426 L 96.7617,6.67969 C 96.5664,5.90625 96.3828,5.33203 96.3828,4.57812 c 0,-1.53124 0.7617,-2.67578 3.0547,-2.67578 l 26.3205,0 c 3.047,0 4.949,1.14454 5.722,3.82032 l 5.899,19.64844 39.863,0 5.723,-19.64844 c 0.762,-2.67578 2.676,-3.82032 5.723,-3.82032 l 27.078,0 c 2.296,0 3.058,1.14454 3.058,2.67578 0,0.75391 -0.195,1.32813 -0.383,2.10157 L 177.438,128.918"
             inkscape:connector-curvature="0"
             id="path24"
             style="fill:#fef7ea;fill-opacity:1;fill-rule:nonzero;stroke:none" /><path
             d="m 287.344,30.5078 c -2.871,-1.1328 -6.485,-1.3281 -10.117,-1.3281 l -12.391,0 0,25.3711 9.726,0 c 4.95,0 8.946,-0.5781 11.825,-1.7305 5.515,-2.0976 7.801,-6.1015 7.801,-11.0547 0,-6.2968 -2.848,-9.539 -6.844,-11.2578 z m -22.508,74.1872 7.242,0 c 3.051,0 5.918,-0.761 8.02,-2.468 2.461,-1.907 3.996,-4.9614 3.996,-9.3559 0,-5.332 -2.688,-8.3789 -5.735,-9.9023 -2.851,-1.3477 -5.898,-1.5352 -7.812,-1.5352 l -5.711,0 0,23.2614 z m 37.184,-33.9333 0,0.75 c 10.683,4.9531 15.832,14.875 15.832,27.2656 0,10.6957 -4.969,18.7027 -12.032,24.2307 -9.902,7.441 -21.726,8.769 -33.175,8.769 l -37.95,0 c -1.902,0 -3.433,-1.523 -3.433,-3.437 l 0,-123.00797 c 0,-1.90625 1.531,-3.42969 3.433,-3.42969 l 50.168,0 c 21.36,0 43.672,11.26176 43.672,35.47266 0,17.1758 -7.637,28.6094 -26.515,33.3867"
             inkscape:connector-curvature="0"
             id="path26"
             style="fill:#fef7ea;fill-opacity:1;fill-rule:nonzero;stroke:none" /><path
             d="m 424.922,71.7109 c -10.117,7.8086 -24.414,10.6719 -35.098,13.9141 -8.965,2.6758 -15.437,5.3398 -15.437,11.25 0,2.2969 1.328,4.395 4.199,5.918 2.078,0.957 5.332,1.719 9.527,1.719 12.778,0 23.266,-4.9612 31.66,-9.5432 1.711,-0.9454 3.235,-0.379 4.192,1.3398 l 10.871,22.6954 c 0.762,1.719 0.379,3.437 -1.328,4.383 -8.203,4.191 -21.352,10.109 -43.496,10.109 -15.625,0 -28.032,-3.633 -36.407,-9.726 -9.726,-6.856 -14.699,-16.973 -14.699,-28.4184 0,-15.2539 6.114,-23.6407 14.699,-30.1368 9.715,-7.0507 22.672,-9.914 32.606,-13.1562 9.148,-2.8594 16.016,-6.1016 16.016,-12.7617 0,-1.9219 -0.567,-5.1563 -3.821,-7.4531 -2.285,-1.7071 -6.094,-2.8594 -11.812,-2.8594 -13.735,0 -24.614,5.9179 -33.574,11.4453 -1.899,1.1406 -3.43,0.3711 -4.204,-1.3281 L 337.938,16.3867 c -0.946,-1.8945 -0.36,-3.4179 1.347,-4.375 C 349.402,6.10156 365.422,0 386.965,0 c 14.695,0 27.84,4.00391 37.183,11.4336 9.172,7.2578 14.883,17.5508 14.883,30.5195 0,14.2969 -5.711,23.4571 -14.109,29.7578"
             inkscape:connector-curvature="0"
             id="path28"
             style="fill:#fef7ea;fill-opacity:1;fill-rule:nonzero;stroke:none" /><path
             d="m 390.547,498.648 c -6.277,21.176 -15.535,28.801 -36.192,28.801 l -24.167,0 0,-150.332 c 0,-20.453 5.457,-22.746 27.644,-23.597 l 0,-7.54 -94.504,0 0,7.54 c 22.192,0.851 27.656,3.144 27.656,23.597 l 0,150.332 -24.207,0 c -20.664,0 -29.914,-7.625 -36.191,-28.801 l -9.844,0 3.965,43.231 171.711,0 4.004,-43.231 -9.875,0 z m -186.309,0.032 c -6.914,21.89 -14.426,28.769 -52.715,28.769 l -29.668,0 c -8.957,0 -10.937,-1.984 -10.937,-10.058 l 0,-61.969 14.629,0 c 30.547,0 37.148,5.531 40.898,25.996 l 7.481,0 0,-69.145 -7.481,0 c -4.004,23.016 -15.547,28.813 -40.898,28.813 l -14.629,0 0,-63.969 c 0,-20.453 5.488,-22.746 28.809,-23.597 l 0,-7.54 -92.7739,0 0,7.54 c 19.3164,0.851 24.7852,3.144 24.7852,23.597 l 0,133.641 c 0,20.492 -5.4688,22.773 -24.1992,23.633 l 0,7.488 163.6329,0 1.113,-43.199 -8.047,0 z M 433.645,602.898 0,602.898 0,170.34 l 433.645,0 0,432.558"
             inkscape:connector-curvature="0"
             id="path30"
             style="fill:#fef7ea;fill-opacity:1;fill-rule:nonzero;stroke:none" /></g></g></g></g></svg>
