<?xml version="1.0" standalone="yes"?>

<svg version="1.1" viewBox="0.0 0.0 960.0 720.0" fill="none" stroke="none" stroke-linecap="square" stroke-miterlimit="10" xmlns="http://www.w3.org/2000/svg" xmlns:xlink="http://www.w3.org/1999/xlink"><clipPath id="p.0"><path d="m0 0l960.0 0l0 720.0l-960.0 0l0 -720.0z" clip-rule="nonzero"></path></clipPath><g clip-path="url(#p.0)"><path fill="#000000" fill-opacity="0.0" d="m0 0l960.0 0l0 720.0l-960.0 0z" fill-rule="nonzero"></path><path fill="#000000" fill-opacity="0.0" d="m154.77165 130.45932l0 459.9055" fill-rule="nonzero"></path><path stroke="#331c54" stroke-width="2.0" stroke-linejoin="round" stroke-linecap="butt" d="m154.77165 130.45932l0 459.9055" fill-rule="nonzero"></path><path fill="#000000" fill-opacity="0.0" d="m153.94489 591.1916l747.2441 0" fill-rule="nonzero"></path><path stroke="#331c54" stroke-width="2.0" stroke-linejoin="round" stroke-linecap="butt" d="m153.94489 591.1916l747.2441 0" fill-rule="nonzero"></path><path fill="#000000" fill-opacity="0.0" d="m153.94489 472.29398c82.56868 -39.632996 390.825 -252.79791 495.41205 -237.79791c104.5871 15.0 104.72485 332.33945 132.11023 327.79788c27.385437 -4.541565 16.376648 -284.3132 32.20215 -355.04724c15.825439 -70.73404 52.0166 -57.79747 62.75061 -69.35695c10.73407 -11.559502 1.3779907 0 1.6535645 0" fill-rule="nonzero"></path><path stroke="#8f3f6d" stroke-width="2.0" stroke-linejoin="round" stroke-linecap="butt" d="m153.94489 472.29398c82.56868 -39.632996 390.825 -252.79791 495.41205 -237.79791c104.5871 15.0 104.72485 332.33945 132.11023 327.79788c27.385437 -4.541565 16.376648 -284.3132 32.20215 -355.04724c15.825439 -70.73404 52.0166 -57.79747 62.75061 -69.35695c10.73407 -11.559502 1.3779907 0 1.6535645 0" fill-rule="nonzero"></path><path fill="#000000" fill-opacity="0.0" d="m354.59055 606.8819l384.00003 0l0 48.0l-384.00003 0z" fill-rule="nonzero"></path><path fill="#331c54" d="m428.5452 620.2394l2.90625 0l-4.609375 13.5625l-3.125 0l-4.609375 -13.5625l2.90625 0l2.546875 8.0625q0.21875 0.71875 0.4375 1.671875q0.234375 0.953125 0.28125 1.328125q0.109375 -0.859375 0.703125 -3.0l2.5625 -8.0625zm4.0466003 0.515625q0 -1.390625 1.546875 -1.390625q1.53125 0 1.53125 1.390625q0 0.65625 -0.390625 1.03125q-0.375 0.359375 -1.140625 0.359375q-1.546875 0 -1.546875 -1.390625zm2.953125 13.046875l-2.828125 0l0 -10.375l2.828125 0l0 10.375zm10.099701 -3.078125q0 1.59375 -1.109375 2.4375q-1.109375 0.828125 -3.3125 0.828125q-1.140625 0 -1.9375 -0.15625q-0.796875 -0.15625 -1.484375 -0.453125l0 -2.328125q0.78125 0.359375 1.765625 0.609375q1.0 0.25 1.75 0.25q1.53125 0 1.53125 -0.890625q0 -0.328125 -0.203125 -0.53125q-0.203125 -0.21875 -0.703125 -0.46875q-0.5 -0.265625 -1.328125 -0.625q-1.203125 -0.5 -1.765625 -0.921875q-0.5625 -0.4375 -0.8125 -0.984375q-0.25 -0.546875 -0.25 -1.359375q0 -1.390625 1.0625 -2.140625q1.078125 -0.75 3.046875 -0.75q1.875 0 3.640625 0.8125l-0.859375 2.046875q-0.765625 -0.34375 -1.453125 -0.546875q-0.671875 -0.21875 -1.375 -0.21875q-1.25 0 -1.25 0.671875q0 0.390625 0.390625 0.671875q0.40625 0.265625 1.765625 0.8125q1.21875 0.5 1.78125 0.921875q0.578125 0.421875 0.84375 0.984375q0.265625 0.5625 0.265625 1.328125zm9.382843 3.078125l-0.375 -1.328125l-0.15625 0q-0.453125 0.71875 -1.296875 1.125q-0.828125 0.390625 -1.890625 0.390625q-1.828125 0 -2.765625 -0.96875q-0.921875 -0.984375 -0.921875 -2.828125l0 -6.765625l2.84375 0l0 6.0625q0 1.125 0.390625 1.6875q0.40625 0.5625 1.265625 0.5625q1.1875 0 1.71875 -0.796875q0.53125 -0.796875 0.53125 -2.640625l0 -4.875l2.828125 0l0 10.375l-2.171875 0zm11.511383 0l-0.546875 -1.40625l-0.078125 0q-0.71875 0.890625 -1.484375 1.25q-0.75 0.34375 -1.953125 0.34375q-1.5 0 -2.359375 -0.84375q-0.859375 -0.859375 -0.859375 -2.4375q0 -1.65625 1.15625 -2.4375q1.15625 -0.78125 3.484375 -0.875l1.796875 -0.046875l0 -0.453125q0 -1.578125 -1.609375 -1.578125q-1.25 0 -2.921875 0.75l-0.9375 -1.921875q1.78125 -0.921875 3.96875 -0.921875q2.09375 0 3.203125 0.90625q1.109375 0.90625 1.109375 2.765625l0 6.90625l-1.96875 0zm-0.84375 -4.8125l-1.09375 0.046875q-1.234375 0.03125 -1.84375 0.4375q-0.59375 0.40625 -0.59375 1.25q0 1.1875 1.375 1.1875q0.984375 0 1.5625 -0.5625q0.59375 -0.5625 0.59375 -1.5l0 -0.859375zm8.346558 4.8125l-2.828125 0l0 -14.4375l2.828125 0l0 14.4375zm14.945953 -3.078125q0 1.59375 -1.109375 2.4375q-1.109375 0.828125 -3.3125 0.828125q-1.140625 0 -1.9375 -0.15625q-0.796875 -0.15625 -1.484375 -0.453125l0 -2.328125q0.78125 0.359375 1.765625 0.609375q1.0 0.25 1.75 0.25q1.53125 0 1.53125 -0.890625q0 -0.328125 -0.203125 -0.53125q-0.203125 -0.21875 -0.703125 -0.46875q-0.5 -0.265625 -1.328125 -0.625q-1.203125 -0.5 -1.765625 -0.921875q-0.5625 -0.4375 -0.8125 -0.984375q-0.25 -0.546875 -0.25 -1.359375q0 -1.390625 1.0625 -2.140625q1.078125 -0.75 3.046875 -0.75q1.875 0 3.640625 0.8125l-0.859375 2.046875q-0.765625 -0.34375 -1.453125 -0.546875q-0.671875 -0.21875 -1.375 -0.21875q-1.25 0 -1.25 0.671875q0 0.390625 0.390625 0.671875q0.40625 0.265625 1.765625 0.8125q1.21875 0.5 1.78125 0.921875q0.578125 0.421875 0.84375 0.984375q0.265625 0.5625 0.265625 1.328125zm1.914093 -9.96875q0 -1.390625 1.546875 -1.390625q1.53125 0 1.53125 1.390625q0 0.65625 -0.390625 1.03125q-0.375 0.359375 -1.140625 0.359375q-1.546875 0 -1.546875 -1.390625zm2.953125 13.046875l-2.828125 0l0 -10.375l2.828125 0l0 10.375zm12.146545 0l-2.828125 0l0 -6.0625q0 -1.125 -0.375 -1.671875q-0.375 -0.5625 -1.171875 -0.5625q-1.09375 0 -1.59375 0.796875q-0.484375 0.796875 -0.484375 2.625l0 4.875l-2.828125 0l0 -10.375l2.15625 0l0.390625 1.328125l0.15625 0q0.421875 -0.71875 1.203125 -1.109375q0.78125 -0.40625 1.8125 -0.40625q2.328125 0 3.15625 1.515625l0.25 0q0.40625 -0.71875 1.21875 -1.109375q0.8125 -0.40625 1.84375 -0.40625q1.75 0 2.65625 0.90625q0.9062805 0.890625 0.9062805 2.890625l0 6.765625l-2.8281555 0l0 -6.0625q0 -1.125 -0.390625 -1.671875q-0.375 -0.5625 -1.171875 -0.5625q-1.046875 0 -1.5625 0.75q-0.515625 0.734375 -0.515625 2.34375l0 5.203125zm8.912994 -13.046875q0 -1.390625 1.546875 -1.390625q1.53125 0 1.53125 1.390625q0 0.65625 -0.390625 1.03125q-0.375 0.359375 -1.140625 0.359375q-1.546875 0 -1.546875 -1.390625zm2.953125 13.046875l-2.828125 0l0 -10.375l2.828125 0l0 10.375zm5.6934204 0l-2.828125 0l0 -14.4375l2.828125 0l0 14.4375zm9.459045 0l-0.546875 -1.40625l-0.078125 0q-0.71875 0.890625 -1.484375 1.25q-0.75 0.34375 -1.953125 0.34375q-1.5 0 -2.359375 -0.84375q-0.859375 -0.859375 -0.859375 -2.4375q0 -1.65625 1.15625 -2.4375q1.15625 -0.78125 3.484375 -0.875l1.796875 -0.046875l0 -0.453125q0 -1.578125 -1.609375 -1.578125q-1.25 0 -2.921875 0.75l-0.9375 -1.921875q1.78125 -0.921875 3.96875 -0.921875q2.09375 0 3.203125 0.90625q1.109375 0.90625 1.109375 2.765625l0 6.90625l-1.96875 0zm-0.84375 -4.8125l-1.09375 0.046875q-1.234375 0.03125 -1.84375 0.4375q-0.59375 0.40625 -0.59375 1.25q0 1.1875 1.375 1.1875q0.984375 0 1.5625 -0.5625q0.59375 -0.5625 0.59375 -1.5l0 -0.859375zm11.315308 -5.75q0.5625 0 0.953125 0.078125l-0.21875 2.65625q-0.34375 -0.09375 -0.828125 -0.09375q-1.359375 0 -2.125 0.703125q-0.75 0.6875 -0.75 1.9375l0 5.28125l-2.828125 0l0 -10.375l2.140625 0l0.421875 1.75l0.140625 0q0.484375 -0.875 1.296875 -1.40625q0.828125 -0.53125 1.796875 -0.53125zm2.5499878 -2.484375q0 -1.390625 1.546875 -1.390625q1.53125 0 1.53125 1.390625q0 0.65625 -0.390625 1.03125q-0.375 0.359375 -1.140625 0.359375q-1.546875 0 -1.546875 -1.390625zm2.953125 13.046875l-2.828125 0l0 -10.375l2.828125 0l0 10.375zm7.2402954 -2.0625q0.734375 0 1.78125 -0.328125l0 2.109375q-1.0625 0.46875 -2.609375 0.46875q-1.6875 0 -2.46875 -0.859375q-0.765625 -0.859375 -0.765625 -2.578125l0 -5.0l-1.359375 0l0 -1.1875l1.5625 -0.953125l0.8125 -2.1875l1.8125 0l0 2.203125l2.90625 0l0 2.125l-2.90625 0l0 5.0q0 0.609375 0.328125 0.90625q0.34375 0.28125 0.90625 0.28125zm2.2389526 -8.3125l3.09375 0l1.96875 5.84375q0.25 0.75 0.34375 1.796875l0.046875 0q0.109375 -0.953125 0.40625 -1.796875l1.921875 -5.84375l3.03125 0l-4.390625 11.703125q-0.609375 1.625 -1.734375 2.421875q-1.109375 0.8125 -2.59375 0.8125q-0.734375 0 -1.4375 -0.15625l0 -2.25q0.5 0.125 1.109375 0.125q0.75 0 1.3125 -0.46875q0.5625 -0.453125 0.875 -1.375l0.171875 -0.515625l-4.125 -10.296875zm21.318237 8.3125q0.734375 0 1.78125 -0.328125l0 2.109375q-1.0625 0.46875 -2.609375 0.46875q-1.6875 0 -2.46875 -0.859375q-0.765625 -0.859375 -0.765625 -2.578125l0 -5.0l-1.359375 0l0 -1.1875l1.5625 -0.953125l0.8125 -2.1875l1.8125 0l0 2.203125l2.90625 0l0 2.125l-2.90625 0l0 5.0q0 0.609375 0.328125 0.90625q0.34375 0.28125 0.90625 0.28125zm5.9733276 -3.140625q0 1.53125 0.5 2.328125q0.515625 0.78125 1.65625 0.78125q1.125 0 1.625 -0.78125q0.5 -0.78125 0.5 -2.328125q0 -1.546875 -0.5 -2.3125q-0.5 -0.765625 -1.640625 -0.765625q-1.140625 0 -1.640625 0.765625q-0.5 0.765625 -0.5 2.3125zm7.171875 0q0 2.53125 -1.34375 3.96875q-1.328125 1.421875 -3.703125 1.421875q-1.5 0 -2.640625 -0.65625q-1.140625 -0.65625 -1.75 -1.875q-0.609375 -1.234375 -0.609375 -2.859375q0 -2.546875 1.3125 -3.953125q1.328125 -1.40625 3.734375 -1.40625q1.5 0 2.640625 0.65625q1.140625 0.640625 1.75 1.859375q0.609375 1.203125 0.609375 2.84375zm16.553345 5.203125l-2.828125 0l0 -6.0625q0 -2.234375 -1.671875 -2.234375q-1.1875 0 -1.71875 0.8125q-0.53125 0.796875 -0.53125 2.609375l0 4.875l-2.828125 0l0 -14.4375l2.828125 0l0 2.9375q0 0.34375 -0.0625 1.625l-0.0625 0.828125l0.140625 0q0.953125 -1.515625 3.015625 -1.515625q1.828125 0 2.765625 0.984375q0.953125 0.984375 0.953125 2.8125l0 6.765625zm10.026978 0l-0.375 -1.328125l-0.15625 0q-0.453125 0.71875 -1.296875 1.125q-0.828125 0.390625 -1.890625 0.390625q-1.828125 0 -2.765625 -0.96875q-0.921875 -0.984375 -0.921875 -2.828125l0 -6.765625l2.84375 0l0 6.0625q0 1.125 0.390625 1.6875q0.40625 0.5625 1.265625 0.5625q1.1875 0 1.71875 -0.796875q0.53125 -0.796875 0.53125 -2.640625l0 -4.875l2.828125 0l0 10.375l-2.171875 0zm14.198914 0l-2.828125 0l0 -6.0625q0 -1.125 -0.375 -1.671875q-0.375 -0.5625 -1.171875 -0.5625q-1.09375 0 -1.59375 0.796875q-0.484375 0.796875 -0.484375 2.625l0 4.875l-2.828125 0l0 -10.375l2.15625 0l0.390625 1.328125l0.15625 0q0.421875 -0.71875 1.203125 -1.109375q0.78125 -0.40625 1.8125 -0.40625q2.328125 0 3.15625 1.515625l0.25 0q0.40625 -0.71875 1.21875 -1.109375q0.8125 -0.40625 1.84375 -0.40625q1.75 0 2.65625 0.90625q0.90625 0.890625 0.90625 2.890625l0 6.765625l-2.828125 0l0 -6.0625q0 -1.125 -0.390625 -1.671875q-0.375 -0.5625 -1.171875 -0.5625q-1.046875 0 -1.5625 0.75q-0.515625 0.734375 -0.515625 2.34375l0 5.203125zm15.631714 0l-0.546875 -1.40625l-0.078125 0q-0.71875 0.890625 -1.484375 1.25q-0.75 0.34375 -1.953125 0.34375q-1.5 0 -2.359375 -0.84375q-0.859375 -0.859375 -0.859375 -2.4375q0 -1.65625 1.15625 -2.4375q1.15625 -0.78125 3.484375 -0.875l1.796875 -0.046875l0 -0.453125q0 -1.578125 -1.609375 -1.578125q-1.25 0 -2.921875 0.75l-0.9375 -1.921875q1.78125 -0.921875 3.96875 -0.921875q2.09375 0 3.203125 0.90625q1.109375 0.90625 1.109375 2.765625l0 6.90625l-1.96875 0zm-0.84375 -4.8125l-1.09375 0.046875q-1.234375 0.03125 -1.84375 0.4375q-0.59375 0.40625 -0.59375 1.25q0 1.1875 1.375 1.1875q0.984375 0 1.5625 -0.5625q0.59375 -0.5625 0.59375 -1.5l0 -0.859375zm15.096558 4.8125l-2.828125 0l0 -6.0625q0 -1.125 -0.40625 -1.671875q-0.390625 -0.5625 -1.265625 -0.5625q-1.1875 0 -1.71875 0.796875q-0.53125 0.78125 -0.53125 2.625l0 4.875l-2.828125 0l0 -10.375l2.15625 0l0.390625 1.328125l0.15625 0q0.46875 -0.75 1.296875 -1.125q0.828125 -0.390625 1.890625 -0.390625q1.8125 0 2.75 0.984375q0.9375 0.96875 0.9375 2.8125l0 6.765625zm9.917603 -3.078125q0 1.59375 -1.109375 2.4375q-1.109375 0.828125 -3.3125 0.828125q-1.140625 0 -1.9375 -0.15625q-0.796875 -0.15625 -1.484375 -0.453125l0 -2.328125q0.78125 0.359375 1.765625 0.609375q1.0 0.25 1.75 0.25q1.53125 0 1.53125 -0.890625q0 -0.328125 -0.203125 -0.53125q-0.203125 -0.21875 -0.703125 -0.46875q-0.5 -0.265625 -1.328125 -0.625q-1.203125 -0.5 -1.765625 -0.921875q-0.5625 -0.4375 -0.8125 -0.984375q-0.25 -0.546875 -0.25 -1.359375q0 -1.390625 1.0625 -2.140625q1.078125 -0.75 3.046875 -0.75q1.875 0 3.640625 0.8125l-0.859375 2.046875q-0.765625 -0.34375 -1.453125 -0.546875q-0.671875 -0.21875 -1.375 -0.21875q-1.25 0 -1.25 0.671875q0 0.390625 0.390625 0.671875q0.40625 0.265625 1.765625 0.8125q1.21875 0.5 1.78125 0.921875q0.578125 0.421875 0.84375 0.984375q0.265625 0.5625 0.265625 1.328125z" fill-rule="nonzero"></path><path fill="#000000" fill-opacity="0.0" d="m27.304462 274.1286l116.47244 0l0 93.00787l-116.47244 0z" fill-rule="nonzero"></path><path fill="#331c54" d="m49.40801 301.0486l-7.8125 0l0 -13.5625l7.8125 0l0 2.359375l-4.9375 0l0 2.96875l4.59375 0l0 2.359375l-4.59375 0l0 3.5l4.9375 0l0 2.375zm11.698593 0l-2.828125 0l0 -6.0625q0 -1.125 -0.375 -1.671875q-0.375 -0.5625 -1.171875 -0.5625q-1.09375 0 -1.59375 0.796875q-0.484375 0.796875 -0.484375 2.625l0 4.875l-2.828125 0l0 -10.375l2.15625 0l0.390625 1.328125l0.15625 0q0.421875 -0.71875 1.203125 -1.109375q0.78125 -0.40625 1.8125 -0.40625q2.328125 0 3.15625 1.515625l0.25 0q0.40625 -0.71875 1.21875 -1.109375q0.8125 -0.40625 1.8437462 -0.40625q1.75 0 2.65625 0.90625q0.90625 0.890625 0.90625 2.890625l0 6.765625l-2.828125 0l0 -6.0625q0 -1.125 -0.390625 -1.671875q-0.3749962 -0.5625 -1.1718712 -0.5625q-1.046875 0 -1.5625 0.75q-0.515625 0.734375 -0.515625 2.34375l0 5.203125zm11.287945 -5.203125q0 1.53125 0.5 2.328125q0.515625 0.78125 1.65625 0.78125q1.125 0 1.625 -0.78125q0.5 -0.78125 0.5 -2.328125q0 -1.546875 -0.5 -2.3125q-0.5 -0.765625 -1.640625 -0.765625q-1.140625 0 -1.640625 0.765625q-0.5 0.765625 -0.5 2.3125zm7.171875 0q0 2.53125 -1.34375 3.96875q-1.328125 1.421875 -3.703125 1.421875q-1.5 0 -2.640625 -0.65625q-1.140625 -0.65625 -1.75 -1.875q-0.609375 -1.234375 -0.609375 -2.859375q0 -2.546875 1.3125 -3.953125q1.328125 -1.40625 3.734375 -1.40625q1.5 0 2.640625 0.65625q1.140625 0.640625 1.75 1.859375q0.609375 1.203125 0.609375 2.84375zm6.5039673 3.140625q0.734375 0 1.78125 -0.328125l0 2.109375q-1.0625 0.46875 -2.609375 0.46875q-1.6875 0 -2.46875 -0.859375q-0.765625 -0.859375 -0.765625 -2.578125l0 -5.0l-1.359375 0l0 -1.1875l1.5625 -0.953125l0.8125 -2.1875l1.8125 0l0 2.203125l2.90625 0l0 2.125l-2.90625 0l0 5.0q0 0.609375 0.328125 0.90625q0.34375 0.28125 0.90625 0.28125zm3.598343 -10.984375q0 -1.390625 1.546875 -1.390625q1.53125 0 1.53125 1.390625q0 0.65625 -0.390625 1.03125q-0.375 0.359375 -1.140625 0.359375q-1.546875 0 -1.546875 -1.390625zm2.953125 13.046875l-2.828125 0l0 -10.375l2.828125 0l0 10.375zm5.1153107 -5.203125q0 1.53125 0.5 2.328125q0.515625 0.78125 1.65625 0.78125q1.125 0 1.625 -0.78125q0.5 -0.78125 0.5 -2.328125q0 -1.546875 -0.5 -2.3125q-0.5 -0.765625 -1.640625 -0.765625q-1.140625 0 -1.640625 0.765625q-0.5 0.765625 -0.5 2.3125zm7.171875 0q0 2.53125 -1.34375 3.96875q-1.328125 1.421875 -3.703125 1.421875q-1.5 0 -2.640625 -0.65625q-1.140625 -0.65625 -1.75 -1.875q-0.609375 -1.234375 -0.609375 -2.859375q0 -2.546875 1.3125 -3.953125q1.328125 -1.40625 3.734375 -1.40625q1.5 0 2.640625 0.65625q1.140625 0.640625 1.75 1.859375q0.609375 1.203125 0.609375 2.84375zm11.707092 5.203125l-2.828125 0l0 -6.0625q0 -1.125 -0.40625 -1.671875q-0.390625 -0.5625 -1.265625 -0.5625q-1.1875 0 -1.71875 0.796875q-0.53125 0.78125 -0.53125 2.625l0 4.875l-2.828125 0l0 -10.375l2.15625 0l0.390625 1.328125l0.15625 0q0.46875 -0.75 1.296875 -1.125q0.828125 -0.390625 1.890625 -0.390625q1.8125 0 2.75 0.984375q0.9375 0.96875 0.9375 2.8125l0 6.765625zm9.277008 0l-0.546875 -1.40625l-0.078125 0q-0.71875 0.890625 -1.484375 1.25q-0.75 0.34375 -1.953125 0.34375q-1.5 0 -2.359375 -0.84375q-0.859375 -0.859375 -0.859375 -2.4375q0 -1.65625 1.15625 -2.4375q1.15625 -0.78125 3.484375 -0.875l1.796875 -0.046875l0 -0.453125q0 -1.578125 -1.609375 -1.578125q-1.25 0 -2.921875 0.75l-0.9375 -1.921875q1.78125 -0.921875 3.96875 -0.921875q2.09375 0 3.203125 0.90625q1.109375 0.90625 1.109375 2.765625l0 6.90625l-1.96875 0zm-0.84375 -4.8125l-1.09375 0.046875q-1.234375 0.03125 -1.84375 0.4375q-0.59375 0.40625 -0.59375 1.25q0 1.1875 1.375 1.1875q0.984375 0 1.5625 -0.5625q0.59375 -0.5625 0.59375 -1.5l0 -0.859375zm8.346573 4.8125l-2.828125 0l0 -14.4375l2.828125 0l0 14.4375z" fill-rule="nonzero"></path><path fill="#331c54" d="m57.37627 312.4861q0.5625 0 0.953125 0.078125l-0.21875 2.65625q-0.34375 -0.09375 -0.828125 -0.09375q-1.359375 0 -2.125 0.703125q-0.75 0.6875 -0.75 1.9375l0 5.28125l-2.828125 0l0 -10.375l2.140625 0l0.421875 1.75l0.140625 0q0.484375 -0.875 1.296875 -1.40625q0.828125 -0.53125 1.796875 -0.53125zm6.9718285 2.015625q-0.9062462 0 -1.4218712 0.578125q-0.5 0.5625 -0.578125 1.609375l3.9687462 0q-0.015625 -1.046875 -0.546875 -1.609375q-0.515625 -0.578125 -1.421875 -0.578125zm0.390625 8.734375q-2.4999962 0 -3.9062462 -1.375q-1.40625 -1.390625 -1.40625 -3.921875q0 -2.609375 1.296875 -4.03125q1.296875 -1.421875 3.6093712 -1.421875q2.1875 0 3.40625 1.25q1.234375 1.25 1.234375 3.453125l0 1.375l-6.687496 0q0.046875 1.203125 0.71875 1.890625q0.671875 0.671875 1.8749962 0.671875q0.9375 0 1.765625 -0.1875q0.84375 -0.203125 1.75 -0.625l0 2.1875q-0.75 0.375 -1.59375 0.546875q-0.84375 0.1875 -2.0625 0.1875zm13.569366 -3.265625q0 1.59375 -1.109375 2.4375q-1.109375 0.828125 -3.3125 0.828125q-1.140625 0 -1.9375 -0.15625q-0.796875 -0.15625 -1.484375 -0.453125l0 -2.328125q0.78125 0.359375 1.765625 0.609375q1.0 0.25 1.75 0.25q1.53125 0 1.53125 -0.890625q0 -0.328125 -0.203125 -0.53125q-0.203125 -0.21875 -0.703125 -0.46875q-0.5 -0.265625 -1.328125 -0.625q-1.203125 -0.5 -1.765625 -0.921875q-0.5625 -0.4375 -0.8125 -0.984375q-0.25 -0.546875 -0.25 -1.359375q0 -1.390625 1.0625 -2.140625q1.078125 -0.75 3.046875 -0.75q1.875 0 3.640625 0.8125l-0.859375 2.046875q-0.765625 -0.34375 -1.453125 -0.546875q-0.671875 -0.21875 -1.375 -0.21875q-1.25 0 -1.25 0.671875q0 0.390625 0.390625 0.671875q0.40625 0.265625 1.765625 0.8125q1.21875 0.5 1.78125 0.921875q0.578125 0.421875 0.84375 0.984375q0.265625 0.5625 0.265625 1.328125zm7.742218 3.265625q-1.828125 0 -2.875 -1.328125l-0.140625 0q0.140625 1.296875 0.140625 1.5l0 4.203125l-2.828125 0l0 -14.9375l2.296875 0l0.40625 1.34375l0.125 0q1.0 -1.53125 2.9375 -1.53125q1.84375 0 2.875 1.421875q1.046875 1.40625 1.046875 3.9375q0 1.65625 -0.484375 2.890625q-0.484375 1.21875 -1.390625 1.859375q-0.90625 0.640625 -2.109375 0.640625zm-0.84375 -8.484375q-1.046875 0 -1.53125 0.640625q-0.484375 0.640625 -0.5 2.125l0 0.3125q0 1.671875 0.5 2.390625q0.5 0.71875 1.578125 0.71875q1.890625 0 1.890625 -3.125q0 -1.53125 -0.46875 -2.296875q-0.46875 -0.765625 -1.46875 -0.765625zm9.196533 3.09375q0 1.53125 0.5 2.328125q0.515625 0.78125 1.65625 0.78125q1.125 0 1.625 -0.78125q0.5 -0.78125 0.5 -2.328125q0 -1.546875 -0.5 -2.3125q-0.5 -0.765625 -1.640625 -0.765625q-1.140625 0 -1.640625 0.765625q-0.5 0.765625 -0.5 2.3125zm7.171875 0q0 2.53125 -1.34375 3.96875q-1.328125 1.421875 -3.703125 1.421875q-1.5 0 -2.640625 -0.65625q-1.140625 -0.65625 -1.75 -1.875q-0.609375 -1.234375 -0.609375 -2.859375q0 -2.546875 1.3125 -3.953125q1.328125 -1.40625 3.734375 -1.40625q1.5 0 2.640625 0.65625q1.140625 0.640625 1.75 1.859375q0.609375 1.203125 0.609375 2.84375zm11.707092 5.203125l-2.828125 0l0 -6.0625q0 -1.125 -0.40625 -1.671875q-0.390625 -0.5625 -1.265625 -0.5625q-1.1875 0 -1.71875 0.796875q-0.53125 0.78125 -0.53125 2.625l0 4.875l-2.828125 0l0 -10.375l2.15625 0l0.390625 1.328125l0.15625 0q0.46875 -0.75 1.296875 -1.125q0.828125 -0.390625 1.890625 -0.390625q1.8125 0 2.75 0.984375q0.9375 0.96875 0.9375 2.8125l0 6.765625zm9.917633 -3.078125q0 1.59375 -1.109375 2.4375q-1.109375 0.828125 -3.3125 0.828125q-1.140625 0 -1.9375 -0.15625q-0.796875 -0.15625 -1.484375 -0.453125l0 -2.328125q0.78125 0.359375 1.765625 0.609375q1.0 0.25 1.75 0.25q1.53125 0 1.53125 -0.890625q0 -0.328125 -0.203125 -0.53125q-0.203125 -0.21875 -0.703125 -0.46875q-0.5 -0.265625 -1.328125 -0.625q-1.203125 -0.5 -1.765625 -0.921875q-0.5625 -0.4375 -0.8125 -0.984375q-0.25 -0.546875 -0.25 -1.359375q0 -1.390625 1.0625 -2.140625q1.078125 -0.75 3.046875 -0.75q1.875 0 3.640625 0.8125l-0.859375 2.046875q-0.765625 -0.34375 -1.453125 -0.546875q-0.671875 -0.21875 -1.375 -0.21875q-1.25 0 -1.25 0.671875q0 0.390625 0.390625 0.671875q0.40625 0.265625 1.765625 0.8125q1.21875 0.5 1.78125 0.921875q0.578125 0.421875 0.84375 0.984375q0.265625 0.5625 0.265625 1.328125zm6.335968 -5.46875q-0.90625 0 -1.421875 0.578125q-0.5 0.5625 -0.578125 1.609375l3.96875 0q-0.015625 -1.046875 -0.546875 -1.609375q-0.515625 -0.578125 -1.421875 -0.578125zm0.390625 8.734375q-2.5 0 -3.90625 -1.375q-1.40625 -1.390625 -1.40625 -3.921875q0 -2.609375 1.296875 -4.03125q1.296875 -1.421875 3.609375 -1.421875q2.1875 0 3.40625 1.25q1.234375 1.25 1.234375 3.453125l0 1.375l-6.6875 0q0.046875 1.203125 0.71875 1.890625q0.671875 0.671875 1.875 0.671875q0.9375 0 1.765625 -0.1875q0.84375 -0.203125 1.75 -0.625l0 2.1875q-0.75 0.375 -1.59375 0.546875q-0.84375 0.1875 -2.0625 0.1875z" fill-rule="nonzero"></path><path fill="#331c54" d="m48.548374 342.9861q0.734375 0 1.78125 -0.328125l0 2.109375q-1.0625 0.46875 -2.609375 0.46875q-1.6875 0 -2.46875 -0.859375q-0.765625 -0.859375 -0.765625 -2.578125l0 -5.0l-1.359375 0l0 -1.1875l1.5625 -0.953125l0.8125 -2.1875l1.8125 0l0 2.203125l2.90625 0l0 2.125l-2.90625 0l0 5.0q0 0.609375 0.328125 0.90625q0.34375 0.28125 0.90625 0.28125zm5.973343 -3.140625q0 1.53125 0.5 2.328125q0.515625 0.78125 1.65625 0.78125q1.125 0 1.625 -0.78125q0.5 -0.78125 0.5 -2.328125q0 -1.546875 -0.5 -2.3125q-0.5 -0.765625 -1.640625 -0.765625q-1.140625 0 -1.640625 0.765625q-0.5 0.765625 -0.5 2.3125zm7.171875 0q0 2.53125 -1.34375 3.96875q-1.328125 1.421875 -3.703125 1.421875q-1.5 0 -2.640625 -0.65625q-1.140625 -0.65625 -1.75 -1.875q-0.609375 -1.234375 -0.609375 -2.859375q0 -2.546875 1.3125 -3.953125q1.328125 -1.40625 3.734375 -1.40625q1.5 0 2.640625 0.65625q1.140625 0.640625 1.75 1.859375q0.609375 1.203125 0.609375 2.84375zm13.568966 5.203125l-0.546875 -1.40625l-0.078125 0q-0.71875 0.890625 -1.484375 1.25q-0.75 0.34375 -1.953125 0.34375q-1.5 0 -2.359375 -0.84375q-0.859375 -0.859375 -0.859375 -2.4375q0 -1.65625 1.15625 -2.4375q1.15625 -0.78125 3.484375 -0.875l1.796875 -0.046875l0 -0.453125q0 -1.578125 -1.609375 -1.578125q-1.25 0 -2.921875 0.75l-0.9375 -1.921875q1.78125 -0.921875 3.96875 -0.921875q2.09375 0 3.203125 0.90625q1.109375 0.90625 1.109375 2.765625l0 6.90625l-1.96875 0zm-0.84375 -4.8125l-1.09375 0.046875q-1.234375 0.03125 -1.84375 0.4375q-0.59375 0.40625 -0.59375 1.25q0 1.1875 1.375 1.1875q0.984375 0 1.5625 -0.5625q0.59375 -0.5625 0.59375 -1.5l0 -0.859375zm16.161575 -5.75q0.5625 0 0.953125 0.078125l-0.21875 2.65625q-0.34375 -0.09375 -0.828125 -0.09375q-1.359375 0 -2.125 0.703125q-0.75 0.6875 -0.75 1.9375l0 5.28125l-2.828125 0l0 -10.375l2.140625 0l0.421875 1.75l0.140625 0q0.484375 -0.875 1.296875 -1.40625q0.828125 -0.53125 1.796875 -0.53125zm4.9249573 5.359375q0 1.53125 0.5 2.328125q0.515625 0.78125 1.65625 0.78125q1.125 0 1.625 -0.78125q0.5 -0.78125 0.5 -2.328125q0 -1.546875 -0.5 -2.3125q-0.5 -0.765625 -1.640625 -0.765625q-1.140625 0 -1.640625 0.765625q-0.5 0.765625 -0.5 2.3125zm7.171875 0q0 2.53125 -1.34375 3.96875q-1.328125 1.421875 -3.703125 1.421875q-1.5 0 -2.640625 -0.65625q-1.140625 -0.65625 -1.75 -1.875q-0.609375 -1.234375 -0.609375 -2.859375q0 -2.546875 1.3125 -3.953125q1.328125 -1.40625 3.734375 -1.40625q1.5 0 2.640625 0.65625q1.140625 0.640625 1.75 1.859375q0.609375 1.203125 0.609375 2.84375zm7.8945923 -5.359375q1.84375 0 2.875 1.4375q1.046875 1.421875 1.046875 3.921875q0 2.5625 -1.078125 3.984375q-1.0625 1.40625 -2.90625 1.40625q-1.828125 0 -2.875 -1.328125l-0.1875 0l-0.484375 1.140625l-2.15625 0l0 -14.4375l2.828125 0l0 3.359375q0 0.640625 -0.109375 2.046875l0.109375 0q1.0 -1.53125 2.9375 -1.53125zm-0.90625 2.265625q-1.046875 0 -1.53125 0.640625q-0.484375 0.640625 -0.5 2.125l0 0.3125q0 1.671875 0.5 2.390625q0.5 0.71875 1.578125 0.71875q0.859375 0 1.375 -0.796875q0.515625 -0.8125 0.515625 -2.328125q0 -1.53125 -0.515625 -2.296875q-0.515625 -0.765625 -1.421875 -0.765625zm9.196533 3.09375q0 1.53125 0.5 2.328125q0.515625 0.78125 1.65625 0.78125q1.125 0 1.625 -0.78125q0.5 -0.78125 0.5 -2.328125q0 -1.546875 -0.5 -2.3125q-0.5 -0.765625 -1.640625 -0.765625q-1.140625 0 -1.640625 0.765625q-0.5 0.765625 -0.5 2.3125zm7.171875 0q0 2.53125 -1.34375 3.96875q-1.328125 1.421875 -3.703125 1.421875q-1.5 0 -2.640625 -0.65625q-1.140625 -0.65625 -1.75 -1.875q-0.609375 -1.234375 -0.609375 -2.859375q0 -2.546875 1.3125 -3.953125q1.328125 -1.40625 3.734375 -1.40625q1.5 0 2.640625 0.65625q1.140625 0.640625 1.75 1.859375q0.609375 1.203125 0.609375 2.84375zm6.5039673 3.140625q0.734375 0 1.78125 -0.328125l0 2.109375q-1.0625 0.46875 -2.609375 0.46875q-1.6875 0 -2.46875 -0.859375q-0.765625 -0.859375 -0.765625 -2.578125l0 -5.0l-1.359375 0l0 -1.1875l1.5625 -0.953125l0.8125 -2.1875l1.8125 0l0 2.203125l2.90625 0l0 2.125l-2.90625 0l0 5.0q0 0.609375 0.328125 0.90625q0.34375 0.28125 0.90625 0.28125z" fill-rule="nonzero"></path><path fill="#000000" fill-opacity="0.0" d="m106.77165 235.0l0 -129.70079l48.0 0l0 129.70079z" fill-rule="nonzero"></path><path fill="#331c54" d="m133.69165 202.6966l-4.3125 1.6875l0 5.4375l4.3125 1.671875l0 1.59375l-13.625 -5.359375l0 -1.328125l13.625 -5.34375l0 1.640625zm-5.734375 2.1875l-4.203125 1.5625q-0.796875 0.3125 -1.953125 0.640625q0.890625 0.203125 1.953125 0.578125l4.203125 1.59375l0 -4.375zm4.65625 -8.524658q0 -0.40625 -0.0625 -0.78125q-0.0625 -0.390625 -0.125 -0.609375l1.171875 0q0.125 0.25 0.203125 0.75q0.078125 0.484375 0.078125 0.875q0 2.9375 -3.109375 2.9375l-6.046875 0l0 1.46875l-0.75 0l-0.640625 -1.46875l-2.171875 -0.640625l0 -0.890625l2.359375 0l0 -2.953125l1.203125 0l0 2.953125l5.984375 0q0.921875 0 1.421875 -0.4375q0.484375 -0.4375 0.484375 -1.203125zm0 -6.5861664q0 -0.40625 -0.0625 -0.78125q-0.0625 -0.390625 -0.125 -0.609375l1.171875 0q0.125 0.25 0.203125 0.75q0.078125 0.484375 0.078125 0.875q0 2.9375 -3.109375 2.9375l-6.046875 0l0 1.46875l-0.75 0l-0.640625 -1.46875l-2.171875 -0.640625l0 -0.890625l2.359375 0l0 -2.953125l1.203125 0l0 2.953125l5.984375 0q0.921875 0 1.421875 -0.4375q0.484375 -0.4375 0.484375 -1.203125zm-9.28125 -7.9299164q0 -0.6875 0.109375 -1.21875l1.4375 0.203125q-0.140625 0.640625 -0.140625 1.125q0 1.234375 1.0 2.109375q1.0 0.875 2.5 0.875l5.453125 0l0 1.53125l-10.171875 0l0 -1.265625l1.890625 -0.171875l0 -0.078125q-1.0 -0.5625 -1.53125 -1.359375q-0.546875 -0.796875 -0.546875 -1.75zm10.359375 -9.24054l-1.453125 0.3125l0 0.078125q0.96875 0.75 1.3125 1.515625q0.328125 0.75 0.328125 1.890625q0 1.5 -0.78125 2.359375q-0.78125 0.859375 -2.21875 0.859375q-3.078125 0 -3.234375 -4.921875l-0.046875 -1.734375l-0.625 0q-1.203125 0 -1.765625 0.515625q-0.578125 0.515625 -0.578125 1.65625q0 1.265625 0.78125 2.875l-1.1875 0.46875q-0.40625 -0.75 -0.625 -1.640625q-0.234375 -0.90625 -0.234375 -1.796875q0 -1.828125 0.8125 -2.703125q0.796875 -0.875 2.578125 -0.875l6.9375 0l0 1.140625zm-1.078125 3.484375q0 -1.4375 -0.78125 -2.25q-0.796875 -0.828125 -2.21875 -0.828125l-0.921875 0l0.0625 1.53125q0.0625 1.84375 0.578125 2.65625q0.5 0.8125 1.5625 0.8125q0.84375 0 1.28125 -0.5q0.4375 -0.515625 0.4375 -1.421875zm1.265625 -11.672592q0 2.21875 -1.359375 3.4375q-1.359375 1.203125 -3.84375 1.203125q-2.5625 0 -3.953125 -1.234375q-1.390625 -1.234375 -1.390625 -3.5q0 -0.734375 0.171875 -1.46875q0.15625 -0.734375 0.359375 -1.15625l1.3125 0.484375q-0.203125 0.5 -0.328125 1.109375q-0.140625 0.609375 -0.140625 1.0625q0 3.109375 3.953125 3.109375q1.875 0 2.875 -0.75q1.0 -0.765625 1.0 -2.25q0 -1.28125 -0.546875 -2.609375l1.359375 0q0.53125 1.015625 0.53125 2.5625zm-1.265625 -8.10051q0 -0.40625 -0.0625 -0.78125q-0.0625 -0.390625 -0.125 -0.609375l1.171875 0q0.125 0.25 0.203125 0.75q0.078125 0.484375 0.078125 0.875q0 2.9375 -3.109375 2.9375l-6.046875 0l0 1.46875l-0.75 0l-0.640625 -1.46875l-2.171875 -0.640625l0 -0.890625l2.359375 0l0 -2.953125l1.203125 0l0 2.953125l5.984375 0q0.921875 0 1.421875 -0.4375q0.484375 -0.4375 0.484375 -1.203125zm1.078125 -4.8361664l0 1.53125l-10.171875 0l0 -1.53125l10.171875 0zm-12.921875 1.671875q-0.53125 0 -0.765625 -0.25q-0.25 -0.265625 -0.25 -0.65625q0 -0.375 0.25 -0.640625q0.25 -0.28125 0.765625 -0.28125q0.515625 0 0.78125 0.28125q0.25 0.265625 0.25 0.640625q0 0.390625 -0.25 0.65625q-0.265625 0.25 -0.78125 0.25zm7.828125 -13.6249695q2.484375 0 3.890625 1.25q1.390625 1.25 1.390625 3.453125q0 1.375 -0.640625 2.4375q-0.640625 1.046875 -1.828125 1.625q-1.203125 0.578125 -2.8125 0.578125q-2.484375 0 -3.875 -1.234375q-1.390625 -1.25 -1.390625 -3.46875q0 -2.125 1.421875 -3.375q1.421875 -1.265625 3.84375 -1.265625zm0 7.75q1.953125 0 2.96875 -0.78125q1.015625 -0.78125 1.015625 -2.296875q0 -1.515625 -1.015625 -2.296875q-1.015625 -0.78125 -2.96875 -0.78125q-1.9375 0 -2.9375 0.78125q-1.015625 0.78125 -1.015625 2.3125q0 1.515625 1.0 2.296875q0.984375 0.765625 2.953125 0.765625zm5.09375 -17.205948l-6.578125 0q-1.25 0 -1.859375 0.578125q-0.609375 0.5625 -0.609375 1.765625q0 1.59375 0.875 2.34375q0.859375 0.734375 2.84375 0.734375l5.328125 0l0 1.53125l-10.171875 0l0 -1.25l1.390625 -0.25l0 -0.0625q-0.75 -0.484375 -1.15625 -1.328125q-0.421875 -0.859375 -0.421875 -1.90625q0 -1.84375 0.890625 -2.765625q0.890625 -0.921875 2.828125 -0.921875l6.640625 0l0 1.53125z" fill-rule="nonzero"></path><path fill="#000000" fill-opacity="0.0" d="m106.77165 601.9265l0 -129.7008l48.0 0l0 129.7008z" fill-rule="nonzero"></path><path fill="#331c54" d="m128.05103 576.6081l5.640625 0l0 1.578125l-13.5625 0l0 -3.71875q0 -2.5 0.953125 -3.6875q0.953125 -1.203125 2.875 -1.203125q2.6875 0 3.640625 2.734375l6.09375 -3.6875l0 1.859375l-5.640625 3.296875l0 2.828125zm-1.359375 0l0 -2.171875q0 -1.671875 -0.65625 -2.4375q-0.671875 -0.78125 -2.0 -0.78125q-1.34375 0 -1.9375 0.796875q-0.59375 0.78125 -0.59375 2.53125l0 2.0625l5.1875 0zm7.1875 -14.016968q0 2.25 -1.375 3.5625q-1.375 1.296875 -3.8125 1.296875q-2.453125 0 -3.90625 -1.203125q-1.453125 -1.21875 -1.453125 -3.265625q0 -1.90625 1.265625 -3.015625q1.25 -1.125 3.3125 -1.125l0.96875 0l0 7.015625q1.796875 -0.046875 2.734375 -0.90625q0.921875 -0.859375 0.921875 -2.421875q0 -1.640625 -0.6875 -3.25l1.375 0q0.34375 0.8125 0.5 1.546875q0.15625 0.734375 0.15625 1.765625zm-9.25 0.40625q0 1.234375 0.796875 1.96875q0.796875 0.71875 2.203125 0.84375l0 -5.3125q-1.453125 0 -2.21875 0.65625q-0.78125 0.640625 -0.78125 1.84375zm9.25 -11.310547q0 0.984375 -0.359375 1.8125q-0.375 0.8125 -1.140625 1.375l0 0.109375q0.890625 -0.109375 1.6875 -0.109375l4.1875 0l0 1.53125l-14.734375 0l0 -1.25l1.390625 -0.203125l0 -0.078125q-0.828125 -0.59375 -1.203125 -1.375q-0.375 -0.796875 -0.375 -1.8125q0 -2.03125 1.390625 -3.125q1.375 -1.09375 3.875 -1.09375q2.5 0 3.890625 1.125q1.390625 1.109375 1.390625 3.09375zm-9.234375 0.21875q0 1.5625 0.875 2.265625q0.859375 0.6875 2.734375 0.703125l0.34375 0q2.140625 0 3.0625 -0.71875q0.921875 -0.71875 0.921875 -2.28125q0 -1.328125 -1.0625 -2.0625q-1.0625 -0.75 -2.9375 -0.75q-1.90625 0 -2.921875 0.75q-1.015625 0.734375 -1.015625 2.09375zm-1.125 -8.369934l6.59375 0q1.25 0 1.859375 -0.5625q0.609375 -0.578125 0.609375 -1.78125q0 -1.59375 -0.859375 -2.328125q-0.875 -0.734375 -2.859375 -0.734375l-5.34375 0l0 -1.546875l10.171875 0l0 1.265625l-1.359375 0.234375l0 0.078125q0.75 0.46875 1.15625 1.3125q0.390625 0.84375 0.390625 1.921875q0 1.84375 -0.875 2.78125q-0.890625 0.921875 -2.828125 0.921875l-6.65625 0l0 -1.5625zm10.171875 -11.544373l0 1.53125l-14.4375 0l0 -1.53125l14.4375 0zm-2.78125 -9.734375q1.421875 0 2.203125 1.0625q0.765625 1.046875 0.765625 2.953125q0 2.03125 -0.640625 3.15625l-1.4375 0q0.375 -0.734375 0.59375 -1.5625q0.21875 -0.84375 0.21875 -1.625q0 -1.203125 -0.390625 -1.84375q-0.390625 -0.65625 -1.171875 -0.65625q-0.59375 0 -1.015625 0.515625q-0.421875 0.515625 -1.0 2.0q-0.53125 1.421875 -0.921875 2.03125q-0.390625 0.59375 -0.890625 0.890625q-0.515625 0.28125 -1.203125 0.28125q-1.25 0 -1.96875 -1.0q-0.71875 -1.015625 -0.71875 -2.78125q0 -1.640625 0.671875 -3.21875l1.25 0.546875q-0.625 1.53125 -0.625 2.78125q0 1.09375 0.34375 1.65625q0.34375 0.546875 0.9375 0.546875q0.421875 0 0.703125 -0.203125q0.28125 -0.203125 0.546875 -0.671875q0.265625 -0.46875 0.75 -1.78125q0.65625 -1.8125 1.328125 -2.4375q0.671875 -0.640625 1.671875 -0.640625zm2.78125 -3.8843384l0 1.53125l-10.171875 0l0 -1.53125l10.171875 0zm-12.921875 1.671875q-0.53125 0 -0.765625 -0.25q-0.25 -0.265625 -0.25 -0.65625q0 -0.375 0.25 -0.640625q0.25 -0.28125 0.765625 -0.28125q0.515625 0 0.78125 0.28125q0.25 0.265625 0.25 0.640625q0 0.390625 -0.25 0.65625q-0.265625 0.25 -0.78125 0.25zm7.828125 -13.6249695q2.484375 0 3.890625 1.25q1.390625 1.25 1.390625 3.453125q0 1.3749695 -0.640625 2.4374695q-0.640625 1.046875 -1.828125 1.625q-1.203125 0.578125 -2.8125 0.578125q-2.484375 0 -3.875 -1.234375q-1.390625 -1.25 -1.390625 -3.4687195q0 -2.125 1.421875 -3.375q1.421875 -1.265625 3.84375 -1.265625zm0 7.7499695q1.953125 0 2.96875 -0.78125q1.015625 -0.78125 1.015625 -2.2968445q0 -1.515625 -1.015625 -2.296875q-1.015625 -0.78125 -2.96875 -0.78125q-1.9375 0 -2.9375 0.78125q-1.015625 0.78125 -1.015625 2.3125q0 1.5155945 1.0 2.2968445q0.984375 0.765625 2.953125 0.765625zm5.09375 -17.205933l-6.578125 0q-1.25 0 -1.859375 0.578125q-0.609375 0.5625 -0.609375 1.765625q0 1.59375 0.875 2.34375q0.859375 0.734375 2.84375 0.734375l5.328125 0l0 1.53125l-10.171875 0l0 -1.25l1.390625 -0.25l0 -0.0625q-0.75 -0.484375 -1.15625 -1.328125q-0.421875 -0.859375 -0.421875 -1.90625q0 -1.84375 0.890625 -2.765625q0.890625 -0.921875 2.828125 -0.921875l6.640625 0l0 1.53125z" fill-rule="nonzero"></path><path fill="#000000" fill-opacity="0.0" d="m153.94489 592.0184l92.53543 0l0 44.37793l-92.53543 0z" fill-rule="nonzero"></path><path fill="#331c54" d="m189.04024 618.93835l-1.796875 0l-7.40625 -11.390625l-0.078125 0q0.15625 2.015625 0.15625 3.6875l0 7.703125l-1.46875 0l0 -13.5625l1.78125 0l7.40625 11.328125l0.0625 0q-0.015625 -0.25 -0.078125 -1.609375q-0.0625 -1.359375 -0.046875 -1.9375l0 -7.78125l1.46875 0l0 13.5625zm12.018188 -5.09375q0 2.484375 -1.25 3.890625q-1.25 1.390625 -3.453125 1.390625q-1.375 0 -2.4375 -0.640625q-1.046875 -0.640625 -1.625 -1.828125q-0.578125 -1.203125 -0.578125 -2.8125q0 -2.484375 1.234375 -3.875q1.25 -1.390625 3.46875 -1.390625q2.125 0 3.375 1.421875q1.265625 1.421875 1.265625 3.84375zm-7.75 0q0 1.953125 0.78125 2.96875q0.78125 1.015625 2.296875 1.015625q1.515625 0 2.296875 -1.015625q0.78125 -1.015625 0.78125 -2.96875q0 -1.9375 -0.78125 -2.9375q-0.78125 -1.015625 -2.3125 -1.015625q-1.515625 0 -2.296875 1.0q-0.765625 0.984375 -0.765625 2.953125zm17.205948 5.09375l0 -6.578125q0 -1.25 -0.578125 -1.859375q-0.5625 -0.609375 -1.765625 -0.609375q-1.59375 0 -2.34375 0.875q-0.734375 0.859375 -0.734375 2.84375l0 5.328125l-1.53125 0l0 -10.171875l1.25 0l0.25 1.390625l0.0625 0q0.484375 -0.75 1.328125 -1.15625q0.859375 -0.421875 1.90625 -0.421875q1.84375 0 2.765625 0.890625q0.921875 0.890625 0.921875 2.828125l0 6.640625l-1.53125 0zm8.778763 0.1875q-2.25 0 -3.5625 -1.375q-1.296875 -1.375 -1.296875 -3.8125q0 -2.453125 1.203125 -3.90625q1.21875 -1.453125 3.265625 -1.453125q1.90625 0 3.015625 1.265625q1.125 1.25 1.125 3.3125l0 0.96875l-7.015625 0q0.046875 1.796875 0.90625 2.734375q0.859375 0.921875 2.421875 0.921875q1.640625 0 3.25 -0.6875l0 1.375q-0.8125 0.34375 -1.546875 0.5q-0.734375 0.15625 -1.765625 0.15625zm-0.40625 -9.25q-1.234375 0 -1.96875 0.796875q-0.71875 0.796875 -0.84375 2.203125l5.3125 0q0 -1.453125 -0.65625 -2.21875q-0.640625 -0.78125 -1.84375 -0.78125z" fill-rule="nonzero"></path><path fill="#000000" fill-opacity="0.0" d="m765.8399 592.0184l174.2677 0l0 44.37793l-174.2677 0z" fill-rule="nonzero"></path><path fill="#331c54" d="m780.73645 618.93835l0 -13.5625l1.578125 0l0 13.5625l-1.578125 0zm11.935913 0l0 -6.578125q0 -1.25 -0.578125 -1.859375q-0.5625 -0.609375 -1.765625 -0.609375q-1.59375 0 -2.34375 0.875q-0.734375 0.859375 -0.734375 2.84375l0 5.328125l-1.53125 0l0 -10.171875l1.25 0l0.25 1.390625l0.0625 0q0.484375 -0.75 1.328125 -1.15625q0.859375 -0.421875 1.90625 -0.421875q1.84375 0 2.765625 0.890625q0.921875 0.890625 0.921875 2.828125l0 6.640625l-1.53125 0zm11.403748 -1.359375l-0.078125 0q-1.0625 1.546875 -3.1875 1.546875q-2.0 0 -3.109375 -1.359375q-1.109375 -1.375 -1.109375 -3.890625q0 -2.515625 1.109375 -3.90625q1.125 -1.390625 3.109375 -1.390625q2.0625 0 3.171875 1.515625l0.125 0l-0.078125 -0.734375l-0.03125 -0.71875l0 -4.140625l1.546875 0l0 14.4375l-1.25 0l-0.21875 -1.359375zm-3.078125 0.25q1.578125 0 2.28125 -0.859375q0.71875 -0.859375 0.71875 -2.765625l0 -0.328125q0 -2.15625 -0.71875 -3.078125q-0.71875 -0.921875 -2.296875 -0.921875q-1.359375 0 -2.078125 1.0625q-0.71875 1.046875 -0.71875 2.96875q0 1.9375 0.71875 2.9375q0.71875 0.984375 2.09375 0.984375zm9.135559 1.109375l-1.53125 0l0 -10.171875l1.53125 0l0 10.171875zm-1.671875 -12.921875q0 -0.53125 0.25 -0.765625q0.265625 -0.25 0.65625 -0.25q0.375 0 0.640625 0.25q0.28125 0.25 0.28125 0.765625q0 0.515625 -0.28125 0.78125q-0.265625 0.25 -0.640625 0.25q-0.390625 0 -0.65625 -0.25q-0.25 -0.265625 -0.25 -0.78125zm11.40625 10.140625q0 1.421875 -1.0625 2.203125q-1.046875 0.765625 -2.953125 0.765625q-2.03125 0 -3.15625 -0.640625l0 -1.4375q0.734375 0.375 1.5625 0.59375q0.84375 0.21875 1.625 0.21875q1.203125 0 1.84375 -0.390625q0.65625 -0.390625 0.65625 -1.171875q0 -0.59375 -0.515625 -1.015625q-0.515625 -0.421875 -2.0 -1.0q-1.421875 -0.53125 -2.03125 -0.921875q-0.59375 -0.390625 -0.890625 -0.890625q-0.28125 -0.515625 -0.28125 -1.203125q0 -1.25 1.0 -1.96875q1.015625 -0.71875 2.78125 -0.71875q1.640625 0 3.21875 0.671875l-0.546875 1.25q-1.53125 -0.625 -2.78125 -0.625q-1.09375 0 -1.65625 0.34375q-0.546875 0.34375 -0.546875 0.9375q0 0.421875 0.203125 0.703125q0.203125 0.28125 0.671875 0.546875q0.46875 0.265625 1.78125 0.75q1.8125 0.65625 2.4375 1.328125q0.640625 0.671875 0.640625 1.671875zm5.6343384 1.703125q0.40625 0 0.78125 -0.0625q0.390625 -0.0625 0.609375 -0.125l0 1.171875q-0.25 0.125 -0.75 0.203125q-0.484375 0.078125 -0.875 0.078125q-2.9375 0 -2.9375 -3.109375l0 -6.046875l-1.46875 0l0 -0.75l1.46875 -0.640625l0.640625 -2.171875l0.890625 0l0 2.359375l2.953125 0l0 1.203125l-2.953125 0l0 5.984375q0 0.921875 0.4375 1.421875q0.4375 0.484375 1.203125 0.484375zm4.8361816 1.078125l-1.53125 0l0 -10.171875l1.53125 0l0 10.171875zm-1.671875 -12.921875q0 -0.53125 0.25 -0.765625q0.265625 -0.25 0.65625 -0.25q0.375 0 0.640625 0.25q0.28125 0.25 0.28125 0.765625q0 0.515625 -0.28125 0.78125q-0.265625 0.25 -0.640625 0.25q-0.390625 0 -0.65625 -0.25q-0.25 -0.265625 -0.25 -0.78125zm11.812439 12.921875l0 -6.578125q0 -1.25 -0.578125 -1.859375q-0.5625 -0.609375 -1.765625 -0.609375q-1.59375 0 -2.34375 0.875q-0.734375 0.859375 -0.734375 2.84375l0 5.328125l-1.53125 0l0 -10.171875l1.25 0l0.25 1.390625l0.0625 0q0.484375 -0.75 1.328125 -1.15625q0.859375 -0.421875 1.90625 -0.421875q1.84375 0 2.765625 0.890625q0.921875 0.890625 0.921875 2.828125l0 6.640625l-1.53125 0zm12.809998 -10.171875l0 0.984375l-1.875 0.21875q0.25 0.328125 0.453125 0.859375q0.203125 0.515625 0.203125 1.171875q0 1.484375 -1.015625 2.375q-1.015625 0.890625 -2.796875 0.890625q-0.453125 0 -0.859375 -0.0625q-0.984375 0.515625 -0.984375 1.296875q0 0.421875 0.34375 0.625q0.34375 0.203125 1.1875 0.203125l1.796875 0q1.640625 0 2.53125 0.703125q0.890625 0.6875 0.890625 2.015625q0 1.6875 -1.359375 2.5625q-1.359375 0.890625 -3.953125 0.890625q-1.984375 0 -3.078125 -0.75q-1.078125 -0.734375 -1.078125 -2.09375q0 -0.921875 0.59375 -1.609375q0.59375 -0.671875 1.671875 -0.90625q-0.390625 -0.171875 -0.65625 -0.546875q-0.265625 -0.375 -0.265625 -0.859375q0 -0.5625 0.296875 -0.96875q0.296875 -0.421875 0.9375 -0.8125q-0.78125 -0.328125 -1.28125 -1.109375q-0.5 -0.78125 -0.5 -1.78125q0 -1.671875 1.0 -2.578125q1.0 -0.90625 2.84375 -0.90625q0.796875 0 1.4375 0.1875l3.515625 0zm-8.109375 11.875q0 0.828125 0.6875 1.25q0.703125 0.4375 2.0 0.4375q1.9375 0 2.875 -0.578125q0.9375 -0.578125 0.9375 -1.578125q0 -0.828125 -0.515625 -1.15625q-0.515625 -0.3125 -1.921875 -0.3125l-1.84375 0q-1.046875 0 -1.640625 0.5q-0.578125 0.5 -0.578125 1.4375zm0.84375 -8.609375q0 1.0625 0.59375 1.609375q0.609375 0.546875 1.6875 0.546875q2.25 0 2.25 -2.1875q0 -2.296875 -2.28125 -2.296875q-1.09375 0 -1.671875 0.59375q-0.578125 0.578125 -0.578125 1.734375zm10.611511 -3.265625l0 6.59375q0 1.25 0.5625 1.859375q0.578125 0.609375 1.78125 0.609375q1.59375 0 2.328125 -0.859375q0.734375 -0.875 0.734375 -2.859375l0 -5.34375l1.546875 0l0 10.171875l-1.265625 0l-0.234375 -1.359375l-0.078125 0q-0.46875 0.75 -1.3125 1.15625q-0.84375 0.390625 -1.921875 0.390625q-1.84375 0 -2.78125 -0.875q-0.921875 -0.890625 -0.921875 -2.828125l0 -6.65625l1.5625 0zm11.544373 10.171875l-1.53125 0l0 -10.171875l1.53125 0l0 10.171875zm-1.671875 -12.921875q0 -0.53125 0.25 -0.765625q0.265625 -0.25 0.65625 -0.25q0.375 0 0.640625 0.25q0.28125 0.25 0.28125 0.765625q0 0.515625 -0.28125 0.78125q-0.265625 0.25 -0.640625 0.25q-0.390625 0 -0.65625 -0.25q-0.25 -0.265625 -0.25 -0.78125zm11.40625 10.140625q0 1.421875 -1.0625 2.203125q-1.046875 0.765625 -2.953125 0.765625q-2.03125 0 -3.15625 -0.640625l0 -1.4375q0.734375 0.375 1.5625 0.59375q0.84375 0.21875 1.625 0.21875q1.203125 0 1.84375 -0.390625q0.65625 -0.390625 0.65625 -1.171875q0 -0.59375 -0.515625 -1.015625q-0.515625 -0.421875 -2.0 -1.0q-1.421875 -0.53125 -2.03125 -0.921875q-0.59375 -0.390625 -0.890625 -0.890625q-0.28125 -0.515625 -0.28125 -1.203125q0 -1.25 1.0 -1.96875q1.015625 -0.71875 2.78125 -0.71875q1.640625 0 3.21875 0.671875l-0.546875 1.25q-1.53125 -0.625 -2.78125 -0.625q-1.09375 0 -1.65625 0.34375q-0.546875 0.34375 -0.546875 0.9375q0 0.421875 0.203125 0.703125q0.203125 0.28125 0.671875 0.546875q0.46875 0.265625 1.78125 0.75q1.8125 0.65625 2.4375 1.328125q0.640625 0.671875 0.640625 1.671875zm9.306213 2.78125l0 -6.578125q0 -1.25 -0.578125 -1.859375q-0.5625 -0.609375 -1.765625 -0.609375q-1.609375 0 -2.34375 0.875q-0.734375 0.875 -0.734375 2.859375l0 5.3125l-1.53125 0l0 -14.4375l1.53125 0l0 4.375q0 0.78125 -0.078125 1.296875l0.09375 0q0.453125 -0.71875 1.296875 -1.140625q0.84375 -0.421875 1.921875 -0.421875q1.859375 0 2.78125 0.890625q0.9375 0.875 0.9375 2.796875l0 6.640625l-1.53125 0zm10.747498 0l-0.3125 -1.453125l-0.078125 0q-0.75 0.96875 -1.515625 1.3125q-0.75 0.328125 -1.890625 0.328125q-1.5 0 -2.359375 -0.78125q-0.859375 -0.78125 -0.859375 -2.21875q0 -3.078125 4.921875 -3.234375l1.734375 -0.046875l0 -0.625q0 -1.203125 -0.515625 -1.765625q-0.515625 -0.578125 -1.65625 -0.578125q-1.265625 0 -2.875 0.78125l-0.46875 -1.1875q0.75 -0.40625 1.640625 -0.625q0.90625 -0.234375 1.796875 -0.234375q1.828125 0 2.703125 0.8125q0.875 0.796875 0.875 2.578125l0 6.9375l-1.140625 0zm-3.484375 -1.078125q1.4375 0 2.25 -0.78125q0.828125 -0.796875 0.828125 -2.21875l0 -0.921875l-1.53125 0.0625q-1.84375 0.0625 -2.65625 0.578125q-0.8125 0.5 -0.8125 1.5625q0 0.84375 0.5 1.28125q0.515625 0.4375 1.421875 0.4375zm12.328857 -9.25q2.015625 0 3.109375 1.375q1.109375 1.359375 1.109375 3.859375q0 2.5 -1.125 3.890625q-1.109375 1.390625 -3.09375 1.390625q-0.984375 0 -1.8125 -0.359375q-0.8125 -0.375 -1.375 -1.140625l-0.109375 0l-0.328125 1.3125l-1.09375 0l0 -14.4375l1.53125 0l0 3.515625q0 1.171875 -0.078125 2.109375l0.078125 0q1.078125 -1.515625 3.1875 -1.515625zm-0.21875 1.28125q-1.578125 0 -2.28125 0.90625q-0.6875 0.90625 -0.6875 3.046875q0 2.140625 0.71875 3.0625q0.71875 0.921875 2.28125 0.921875q1.421875 0 2.109375 -1.03125q0.703125 -1.03125 0.703125 -2.96875q0 -1.984375 -0.703125 -2.953125q-0.6875 -0.984375 -2.140625 -0.984375zm8.463684 9.046875l-1.53125 0l0 -14.4375l1.53125 0l0 14.4375zm7.468689 0.1875q-2.25 0 -3.5625 -1.375q-1.296875 -1.375 -1.296875 -3.8125q0 -2.453125 1.203125 -3.90625q1.21875 -1.453125 3.265625 -1.453125q1.90625 0 3.015625 1.265625q1.125 1.25 1.125 3.3125l0 0.96875l-7.015625 0q0.046875 1.796875 0.90625 2.734375q0.859375 0.921875 2.421875 0.921875q1.640625 0 3.25 -0.6875l0 1.375q-0.8125 0.34375 -1.546875 0.5q-0.734375 0.15625 -1.765625 0.15625zm-0.40625 -9.25q-1.234375 0 -1.96875 0.796875q-0.71875 0.796875 -0.84375 2.203125l5.3125 0q0 -1.453125 -0.65625 -2.21875q-0.640625 -0.78125 -1.84375 -0.78125z" fill-rule="nonzero"></path></g></svg>

